<svg xmlns="http://www.w3.org/2000/svg" width="720" height="720" viewBox="0 0 720 720">
  <defs><style>
    .t { font-family: "SF Mono", Menlo, Monaco, "DejaVu Sans Mono", monospace; white-space: pre; }
    .dim { fill: #8b8fa3; } .txt { fill: #e6e6ef; }
    .green { fill: #3fd68f; } .orange { fill: #e8a15d; } .brand { fill: #d75fd7; font-weight: 700; }
  </style></defs>
  <rect width="720" height="720" fill="#0f1016"/>
  <rect x="16" y="109" width="688" height="502" rx="16" fill="#15161c" stroke="#2a2c37"/>
  <path d="M16 125 a16 16 0 0 1 16 -16 h656 a16 16 0 0 1 16 16 v26 h-688 z" fill="#1d1f28"/>
  <circle cx="44" cy="130" r="6.5" fill="#ff5f57"/><circle cx="66" cy="130" r="6.5" fill="#febc2e"/><circle cx="88" cy="130" r="6.5" fill="#28c840"/>
  <text x="360" y="135" text-anchor="middle" class="t dim" font-size="13">npx cache-refund</text>
  <text x="40" y="189" class="t dim" font-size="15">$ <tspan class="t txt">npx cache-refund card</tspan></text>
  <rect x="80" y="211" width="560" height="210" rx="10" fill="none" stroke="#d75fd7" stroke-width="1.6"/>
  <rect x="285" y="202" width="150" height="18" fill="#15161c"/>
  <text x="360" y="216" text-anchor="middle" class="t brand" font-size="14">cache-refund</text>
  <text x="360" y="269" text-anchor="middle" class="t txt" font-size="15">YOUR 1H CACHE RECEIPT</text>
  <text x="360" y="295" text-anchor="middle" class="t green" font-size="15" font-weight="700">saved ~$2,585.34 in API-value (85d span)</text>
  <text x="360" y="347" text-anchor="middle" class="t dim" font-size="15">efficiency score: 98.5 / 100</text>
  <text x="360" y="373" text-anchor="middle" class="t dim" font-size="15">13.7B tokens · 566 sessions</text>
  <text x="360" y="399" text-anchor="middle" class="t dim" font-size="15">absorbed $65,238 of API-value</text>
  <text x="40" y="459" class="t"><tspan class="orange" font-size="15">›</tspan><tspan class="txt" font-size="15"> Model switches invalidated 60.8M tokens of cache </tspan><tspan class="orange" font-size="15">($453.97-eq)</tspan><tspan class="txt" font-size="15">.</tspan></text><text x="40" y="485" class="t dim" font-size="13">Same work on a 5m cache: ~10% more of your usage limit. Uncached: ~5.2x.</text>
  <text x="40" y="525" class="t dim" font-size="13">share: npx cache-refund card  ·  #cacherefund</text>
  <text x="40" y="566.5" class="t dim" font-size="12">100% local · token counts + timestamps · nothing leaves this machine</text><text x="40" y="585.5" class="t dim" font-size="12">$ figures are API-value (list rates) — subscription usage is metered in it, not billed</text>
</svg>
